<svg xmlns="http://www.w3.org/2000/svg" width="512" height="512" viewBox="0 0 511.856 511.856"><g xmlns="http://www.w3.org/2000/svg"><path d="M255.928 120.388c74.86 0 135.54 60.68 135.54 135.54s-60.68 135.54-135.54 135.54-135.54-60.68-135.54-135.54 60.68-135.54 135.54-135.54zm67.04 135.54c0-37.02-30.02-67.04-67.04-67.04s-67.04 30.02-67.04 67.04 30.02 67.04 67.04 67.04 67.04-30.02 67.04-67.04z" fill="#ce9627" data-original="#d7d0d6"/><path d="M504.358 241.318v29.22c0 7.64-6.19 13.83-13.83 13.83h-19c-3.32 0-6.15 2.42-6.68 5.7a210.017 210.017 0 01-13.47 47.25 6.785 6.785 0 002.67 8.37l16.1 10.01c6.49 4.04 8.47 12.57 4.44 19.05l-15.44 24.82c-4.04 6.48-12.56 8.47-19.05 4.44l-16.15-10.05c-2.81-1.75-6.48-1.2-8.67 1.29-8.1 9.26-16.99 17.79-26.57 25.51a6.78 6.78 0 00-1.64 8.62l9.39 16.54c3.77 6.65 1.44 15.09-5.2 18.86l-25.43 14.42c-6.64 3.77-15.08 1.44-18.85-5.2l-9.36-16.49c-1.64-2.9-5.14-4.16-8.26-3.01a210.871 210.871 0 01-39.28 10.35c-3.29.53-5.71 3.36-5.71 6.68v19c0 7.64-6.19 13.83-13.83 13.83h-29.22c-7.64 0-13.83-6.19-13.83-13.83v-19c0-3.32-2.42-6.15-5.71-6.68-13.57-2.21-26.71-5.7-39.28-10.35-3.12-1.15-6.62.11-8.26 3.01l-9.36 16.49c-3.77 6.64-12.21 8.97-18.85 5.2l-25.43-14.42c-6.64-3.77-8.97-12.21-5.2-18.86l9.39-16.54a6.78 6.78 0 00-1.64-8.62 212.136 212.136 0 01-26.57-25.51c-2.19-2.49-5.86-3.04-8.67-1.29l-16.15 10.05c-6.49 4.03-15.01 2.04-19.05-4.44l-15.44-24.82c-4.03-6.48-2.05-15.01 4.44-19.05l16.1-10.01a6.785 6.785 0 002.67-8.37 210.017 210.017 0 01-13.47-47.25 6.777 6.777 0 00-6.68-5.7h-19c-7.64 0-13.83-6.19-13.83-13.83v-29.22c0-7.64 6.19-13.83 13.83-13.83h19c3.32 0 6.15-2.42 6.68-5.7 2.67-16.47 7.23-32.29 13.47-47.25 1.28-3.07.15-6.61-2.67-8.37l-16.1-10.01c-6.49-4.04-8.47-12.57-4.44-19.05l15.44-24.82c4.04-6.48 12.56-8.47 19.05-4.44l16.15 10.05c2.81 1.75 6.48 1.2 8.67-1.29 8.1-9.26 16.99-17.79 26.57-25.51a6.78 6.78 0 001.64-8.62l-9.39-16.54c-3.77-6.65-1.44-15.09 5.2-18.86l25.43-14.42c6.64-3.77 15.08-1.44 18.85 5.2l9.36 16.49c1.64 2.9 5.14 4.16 8.26 3.01 12.57-4.65 25.71-8.14 39.28-10.35 3.29-.53 5.71-3.36 5.71-6.68v-19c0-7.64 6.19-13.83 13.83-13.83h29.22c7.64 0 13.83 6.19 13.83 13.83v19c0 3.32 2.42 6.15 5.71 6.68 13.57 2.21 26.71 5.7 39.28 10.35 3.12 1.15 6.62-.11 8.26-3.01l9.36-16.49c3.77-6.64 12.21-8.97 18.85-5.2l25.43 14.42c6.64 3.77 8.97 12.21 5.2 18.86l-9.39 16.54a6.78 6.78 0 001.64 8.62c9.58 7.72 18.47 16.25 26.57 25.51 2.19 2.49 5.86 3.04 8.67 1.29l16.15-10.05c6.49-4.03 15.01-2.04 19.05 4.44l15.44 24.82c4.03 6.48 2.05 15.01-4.44 19.05l-16.1 10.01a6.785 6.785 0 00-2.67 8.37c6.24 14.96 10.8 30.78 13.47 47.25.53 3.28 3.36 5.7 6.68 5.7h19c7.64 0 13.83 6.19 13.83 13.83zm-112.89 14.61c0-74.86-60.68-135.54-135.54-135.54s-135.54 60.68-135.54 135.54 60.68 135.54 135.54 135.54 135.54-60.68 135.54-135.54z" fill="#e3aa39" data-original="#efedef"/><path d="M112.561 248.322c0-81.247 40.514-153.616 103.626-200.32a210.638 210.638 0 00-33.689 9.357c-3.12 1.15-6.62-.11-8.26-3.01l-9.36-16.49c-3.77-6.64-12.21-8.97-18.85-5.2l-25.43 14.42c-6.64 3.77-8.97 12.21-5.2 18.86l9.39 16.54a6.78 6.78 0 01-1.64 8.62 212.136 212.136 0 00-26.57 25.51c-2.19 2.49-5.86 3.04-8.67 1.29l-16.15-10.05c-6.49-4.03-15.01-2.04-19.05 4.44l-15.44 24.82c-4.03 6.48-2.05 15.01 4.44 19.05l16.1 10.01a6.785 6.785 0 012.67 8.37 209.868 209.868 0 00-13.47 47.25 6.777 6.777 0 01-6.68 5.7h-19c-7.64 0-13.83 6.19-13.83 13.83v29.22c0 7.64 6.19 13.83 13.83 13.83h19c3.32 0 6.15 2.42 6.68 5.7 2.67 16.46 7.23 32.29 13.47 47.25 1.28 3.07.15 6.61-2.67 8.37l-16.1 10.01c-6.49 4.04-8.47 12.57-4.44 19.05l15.44 24.82c4.04 6.48 12.56 8.47 19.05 4.44l16.15-10.05c2.81-1.75 6.48-1.2 8.67 1.29 8.1 9.26 16.99 17.79 26.57 25.51a6.78 6.78 0 011.64 8.62l-9.39 16.54c-3.77 6.65-1.44 15.09 5.2 18.86l25.43 14.42c6.64 3.77 15.08 1.44 18.85-5.2l9.36-16.49c1.64-2.9 5.14-4.16 8.26-3.01 12.57 4.65 25.71 8.14 39.28 10.35 3.29.53 5.71 3.36 5.71 6.68v19c0 7.64 6.19 13.83 13.83 13.83h29.22c7.64 0 13.83-6.19 13.83-13.83v-5.023c-100.635-37.4-171.807-129.495-171.807-237.184z" fill="#a87613" data-original="#e5e1e5"/><path d="M255.928 88.238c92.61 0 167.69 75.08 167.69 167.69s-75.08 167.69-167.69 167.69-167.69-75.08-167.69-167.69 75.08-167.69 167.69-167.69zm135.54 167.69c0-74.86-60.68-135.54-135.54-135.54s-135.54 60.68-135.54 135.54 60.68 135.54 135.54 135.54 135.54-60.68 135.54-135.54z" fill="#a87613" data-original="#e5e1e5"/><path d="M112.561 248.322c0-41.508 10.58-80.709 29.338-115.345-33.002 30.625-53.661 74.38-53.661 122.952 0 57.735 29.16 108.638 73.576 138.802-31.042-41.442-49.253-91.918-49.253-146.409z" fill="#ce9627" data-original="#d7d0d6"/><path d="M490.526 219.984H472.15a218.02 218.02 0 00-13.615-47.769l15.577-9.691c9.986-6.213 13.056-19.393 6.844-29.379l-15.44-24.817c-6.213-9.987-19.392-13.057-29.379-6.844l-15.622 9.719a221.114 221.114 0 00-26.619-25.56l9.083-16.006c2.812-4.955 3.526-10.709 2.011-16.201s-5.079-10.065-10.034-12.878l-25.42-14.426a21.196 21.196 0 00-16.201-2.011 21.19 21.19 0 00-12.878 10.034L331.4 50.114a218.214 218.214 0 00-39.526-10.407V21.33c0-11.761-9.569-21.33-21.33-21.33h-29.229c-11.761 0-21.33 9.569-21.33 21.33v18.377a218.275 218.275 0 00-39.526 10.407l-9.057-15.959a21.19 21.19 0 00-12.878-10.034 21.188 21.188 0 00-16.201 2.011l-25.42 14.426a21.193 21.193 0 00-10.034 12.878 21.188 21.188 0 002.011 16.201l9.083 16.006a220.963 220.963 0 00-26.619 25.56l-15.623-9.719c-9.986-6.213-23.167-3.143-29.378 6.844l-15.44 24.818c-6.212 9.986-3.143 23.166 6.844 29.379l15.577 9.691a217.964 217.964 0 00-13.615 47.769H21.331C9.569 219.984 0 229.553 0 241.314v29.229c0 11.761 9.569 21.33 21.331 21.33h18.376a218.02 218.02 0 0013.615 47.769l-15.577 9.691c-9.986 6.213-13.056 19.393-6.844 29.379l15.44 24.818c6.212 9.986 19.392 13.056 29.379 6.844l15.622-9.719a221.046 221.046 0 0026.62 25.56l-9.083 16.006c-2.812 4.955-3.526 10.709-2.011 16.201s5.079 10.065 10.034 12.878l25.42 14.426c4.956 2.813 10.709 3.526 16.201 2.011s10.066-5.079 12.878-10.034l9.057-15.959a218.275 218.275 0 0039.526 10.407v18.376c0 11.762 9.569 21.331 21.33 21.331h29.229c11.761 0 21.33-9.569 21.33-21.331v-18.376a218.253 218.253 0 0039.526-10.407l9.057 15.959a21.19 21.19 0 0012.878 10.034 21.182 21.182 0 0016.201-2.011l25.42-14.426a21.193 21.193 0 0010.034-12.878 21.188 21.188 0 00-2.011-16.201l-9.083-16.006a221.117 221.117 0 0026.62-25.56l15.622 9.719c9.985 6.212 23.165 3.143 29.378-6.844l15.44-24.818c6.212-9.986 3.143-23.166-6.844-29.379l-15.578-9.691c.91-2.205 1.833-4.576 2.884-7.406a7.5 7.5 0 00-14.061-5.223 200.254 200.254 0 01-2.899 7.416 14.229 14.229 0 005.63 17.624l16.101 10.017a6.337 6.337 0 012.031 8.719l-15.44 24.818a6.338 6.338 0 01-8.719 2.031l-16.146-10.045a14.224 14.224 0 00-18.28 2.72 206.048 206.048 0 01-25.633 24.613 14.22 14.22 0 00-3.456 18.156l9.388 16.542c.834 1.471 1.047 3.178.597 4.808s-1.507 2.987-2.978 3.822l-25.42 14.426a6.29 6.29 0 01-4.808.597 6.294 6.294 0 01-3.822-2.978l-9.361-16.494a14.228 14.228 0 00-17.382-6.337 203.287 203.287 0 01-37.883 9.974c-6.955 1.128-12.002 7.054-12.002 14.092v18.994a6.338 6.338 0 01-6.33 6.331h-29.229c-3.49 0-6.33-2.84-6.33-6.331v-18.994c0-7.038-5.048-12.964-12.002-14.092a203.287 203.287 0 01-37.883-9.974c-6.603-2.443-13.914.222-17.383 6.337l-9.361 16.495a6.29 6.29 0 01-3.822 2.978 6.29 6.29 0 01-4.808-.597l-25.42-14.426c-1.471-.834-2.528-2.192-2.978-3.822s-.237-3.337.597-4.808l9.387-16.542a14.22 14.22 0 00-3.455-18.156 205.918 205.918 0 01-25.634-24.613 14.222 14.222 0 00-18.28-2.72l-16.145 10.045c-2.965 1.843-6.876.933-8.719-2.031l-15.44-24.818a6.337 6.337 0 012.031-8.719l16.101-10.017a14.229 14.229 0 005.63-17.624 202.967 202.967 0 01-12.984-45.557 14.225 14.225 0 00-14.091-12H21.331a6.338 6.338 0 01-6.331-6.33v-29.229c0-3.49 2.84-6.33 6.331-6.33h18.994a14.224 14.224 0 0014.091-12A202.974 202.974 0 0167.4 177.428a14.229 14.229 0 00-5.63-17.624l-16.101-10.017a6.337 6.337 0 01-2.031-8.719l15.44-24.818a6.34 6.34 0 018.719-2.031l16.146 10.045a14.222 14.222 0 0018.28-2.72 205.91 205.91 0 0125.633-24.613 14.22 14.22 0 003.456-18.156l-9.388-16.542c-.834-1.471-1.047-3.178-.597-4.808s1.507-2.987 2.978-3.822l25.42-14.426c1.47-.835 3.178-1.047 4.808-.597s2.987 1.508 3.822 2.978l9.361 16.494c3.469 6.114 10.779 8.778 17.382 6.337a203.317 203.317 0 0137.884-9.974c6.955-1.128 12.002-7.054 12.002-14.092V21.33c0-3.49 2.84-6.33 6.33-6.33h29.229c3.49 0 6.33 2.84 6.33 6.33v18.994c0 7.038 5.048 12.964 12.002 14.092a203.317 203.317 0 0137.884 9.974c6.602 2.44 13.913-.223 17.382-6.337l9.361-16.495c.834-1.47 2.192-2.528 3.822-2.978s3.337-.238 4.808.597l25.42 14.426c1.471.834 2.528 2.192 2.978 3.822s.237 3.337-.597 4.808l-9.387 16.542a14.22 14.22 0 003.455 18.157 205.856 205.856 0 0125.634 24.614 14.222 14.222 0 0018.28 2.719l16.146-10.045a6.337 6.337 0 018.719 2.031l15.44 24.818a6.337 6.337 0 01-2.031 8.719l-16.101 10.017a14.229 14.229 0 00-5.63 17.624 202.967 202.967 0 0112.984 45.557 14.225 14.225 0 0014.091 12h18.994a6.338 6.338 0 016.331 6.33v29.229c0 3.49-2.84 6.33-6.331 6.33h-18.994a14.224 14.224 0 00-14.091 12 201.905 201.905 0 01-1.579 8.464 7.5 7.5 0 0014.692 3.024 220.76 220.76 0 001.595-8.488h18.376c11.762 0 21.331-9.569 21.331-21.33v-29.229c-.001-11.763-9.569-21.332-21.331-21.332z" data-original="#000000"/><path d="M361.665 116.249C331.024 93.019 294.46 80.74 255.928 80.74c-96.599 0-175.188 78.589-175.188 175.188s78.589 175.188 175.188 175.188 175.188-78.589 175.188-175.188c0-43.31-15.938-84.89-44.878-117.08a7.499 7.499 0 00-10.591-.563 7.5 7.5 0 00-.563 10.592c26.46 29.432 41.032 67.45 41.032 107.051 0 88.328-71.86 160.188-160.188 160.188S95.74 344.256 95.74 255.928 167.6 95.74 255.928 95.74c35.233 0 68.663 11.225 96.675 32.461a7.5 7.5 0 0010.507-1.445 7.498 7.498 0 00-1.445-10.507z" data-original="#000000"/><path d="M255.928 112.885c-78.874 0-143.043 64.169-143.043 143.043s64.169 143.043 143.043 143.043 143.043-64.169 143.043-143.043-64.169-143.043-143.043-143.043zm0 271.086c-70.603 0-128.043-57.44-128.043-128.043s57.44-128.043 128.043-128.043 128.043 57.44 128.043 128.043-57.44 128.043-128.043 128.043z" data-original="#000000"/><path d="M255.928 181.391c-22.899 0-44.204 10.318-58.45 28.31a7.501 7.501 0 0011.76 9.312c11.384-14.376 28.402-22.622 46.69-22.622 32.829 0 59.537 26.708 59.537 59.537s-26.708 59.537-59.537 59.537-59.537-26.708-59.537-59.537c0-3.672.354-7.407 1.05-11.103a7.5 7.5 0 00-5.98-8.76 7.496 7.496 0 00-8.76 5.98 75.138 75.138 0 00-1.31 13.883c0 41.1 33.437 74.537 74.537 74.537s74.537-33.437 74.537-74.537-33.437-74.537-74.537-74.537z" data-original="#000000"/></g></svg>